<?xml version="1.0" encoding="UTF-8" standalone="no"?>
<svg width="700" height="700" viewBox="0 0 700 700" fill="none" version="1.1" xmlns="http://www.w3.org/2000/svg">
  <path fill-rule="evenodd" clip-rule="evenodd"
    d="M 349.5,613 C 495.027,613 613,495.027 613,349.5 613,203.973 495.027,86 349.5,86 203.973,86 86,203.973 86,349.5 86,495.027 203.973,613 349.5,613 Z m 0,-111 C 433.723,502 502,433.723 502,349.5 502,265.277 433.723,197 349.5,197 265.277,197 197,265.277 197,349.5 197,433.723 265.277,502 349.5,502 Z"
    fill="#323330" />
  <path fill-rule="evenodd" clip-rule="evenodd"
    d="m 267.052,486.597 -48.005,83.148 C 98.656,498.333 57.8211,343.15 128,221.596 198.179,100.043 352.989,57.8151 475.029,126.371 l -48.006,83.148 C 350.906,167.466 254.807,193.96 211.138,269.596 167.47,345.233 192.575,441.704 267.052,486.597 Z m 210.65,-358.703 -0.269,-0.156 z"
    fill="url(#paint0_linear)" />
  <path fill-rule="evenodd" clip-rule="evenodd"
    d="m 477.702,127.894 0.41,0.237 c -0.137,-0.079 -0.273,-0.158 -0.41,-0.237 z m -45.412,84.664 48.005,-83.147 c 120.44,71.394 161.301,226.611 91.11,348.185 -70.191,121.575 -225.044,163.796 -347.093,95.19 l 48.005,-83.148 c 76.128,42.103 172.268,15.616 215.95,-60.042 43.681,-75.657 18.549,-172.161 -55.977,-217.038 z"
    fill="url(#paint1_linear)" />
  <defs>
    <linearGradient id="paint0_linear" x1="477.711" y1="127.879" x2="221.77299" y2="571.177"
      gradientUnits="userSpaceOnUse">
      <stop stop-color="#FFDE00" />
      <stop offset="0.494792" stop-color="#D6C44B" />
      <stop offset="1" stop-color="#323330" />
    </linearGradient>
    <linearGradient id="paint1_linear" x1="221.702" y1="571.29901" x2="477.64099" y2="128"
      gradientUnits="userSpaceOnUse">
      <stop stop-color="#FFDE00" />
      <stop offset="0.494792" stop-color="#D6C44B" />
      <stop offset="1" stop-color="#323330" />
    </linearGradient>
  </defs>
</svg>
